<?xml version="1.0" encoding="utf-8"?>
<!-- Generator: Adobe Illustrator 19.1.0, SVG Export Plug-In . SVG Version: 6.00 Build 0)  -->
<svg version="1.1" id="Layer_1" xmlns="http://www.w3.org/2000/svg" xmlns:xlink="http://www.w3.org/1999/xlink" x="0px" y="0px"
	 viewBox="0 0 491.4 154.6" style="enable-background:new 0 0 491.4 154.6;" xml:space="preserve">
<style type="text/css">
	.st0{fill:#FFFFFF;}
	.st1{fill:#F2F2F2;}
	.st2{fill:#DDDDDD;}
	.st3{fill:#E5E4E4;}
	.st4{fill:none;}
	.st5{fill:#BFBEBE;}
	.st6{fill:#D8D9D9;}
	.st7{fill:#BCBCBC;}
	.st8{fill:#9F9F9E;}
	.st9{fill:#B3B2B2;}
	.st10{fill:#D1D1D1;}
</style>
<g>
	<g>
		<path class="st0" d="M180.6,51.6h3.2h3.2l15.1,51.2h-3.2h-3.2l-4.1-14.9h-16.4l-4.1,14.9h-3.2h-3.2L180.6,51.6z M177.2,81.7h13
			l-6.4-23.4h0L177.2,81.7z"/>
		<path class="st0" d="M211.3,51.6h3.2h3.2l12.1,43.9h0l11.8-43.9h3.2h3.2l-15.3,51.2h-3h-3.1L211.3,51.6z"/>
		<path class="st0" d="M272.9,51.6h3.2h3.2l15.1,51.2h-3.2h-3.2L284,87.9h-16.4l-4.1,14.9h-3.2h-3.2L272.9,51.6z M269.4,81.7h13
			L276,58.3h0L269.4,81.7z"/>
		<path class="st0" d="M332,66.4c-0.1-3.2-1-5.8-2.8-7.5c-1.7-1.8-4.2-2.7-7.3-2.7c-3.2,0-5.7,0.7-7.3,2.2c-1.6,1.5-2.4,3.7-2.4,6.7
			c0,2.2,0.7,3.9,2.2,4.9c1.4,1.1,4.3,2.1,8.5,3.1c6,1.4,10.1,3.3,12.3,5.4c2.3,2.2,3.4,5.5,3.4,9.8c0,4.8-1.5,8.6-4.5,11.4
			c-3,2.8-7.1,4.2-12.2,4.2c-5.2,0-9.3-1.5-12.2-4.6c-2.9-3.1-4.4-7.4-4.5-13.1h5.3c0,3.7,1.1,6.6,3,8.7c2,2,4.7,3.1,8.3,3.1
			c3.7,0,6.5-0.7,8.3-2.2c1.8-1.5,2.8-3.7,2.8-6.6c0-2.7-0.7-4.6-2.2-5.8c-1.4-1.2-4.3-2.4-8.5-3.4c-6-1.4-10.1-3.2-12.3-5.3
			c-2.3-2.1-3.4-5.1-3.4-9.2c0-4.7,1.4-8.4,4.1-11.2c2.8-2.8,6.5-4.1,11.2-4.1c4.8,0,8.5,1.4,11.1,4.2c2.7,2.8,4.1,6.8,4.2,11.9H332
			z"/>
		<path class="st0" d="M386.2,81.8c0,7.9-1.3,13.5-3.8,17c-2.6,3.5-6.8,5.2-12.7,5.2c-5.8,0-10-1.7-12.6-5.2
			c-2.6-3.5-3.9-9.2-3.9-17V51.6h2.8h2.8v30.5c0,5.6,0.9,9.6,2.6,12.1c1.7,2.5,4.6,3.7,8.5,3.7c3.9,0,6.8-1.2,8.5-3.7
			c1.7-2.5,2.6-6.5,2.6-12.1V51.6h2.5h2.5V81.8z"/>
		<path class="st0" d="M427.4,66.4c-0.1-3.2-1-5.8-2.8-7.5c-1.7-1.8-4.2-2.7-7.3-2.7c-3.2,0-5.7,0.7-7.3,2.2
			c-1.6,1.5-2.4,3.7-2.4,6.7c0,2.2,0.7,3.9,2.2,4.9c1.4,1.1,4.3,2.1,8.5,3.1c6,1.4,10.1,3.3,12.3,5.4c2.3,2.2,3.4,5.5,3.4,9.8
			c0,4.8-1.5,8.6-4.5,11.4c-3,2.8-7.1,4.2-12.2,4.2c-5.2,0-9.3-1.5-12.2-4.6c-2.9-3.1-4.4-7.4-4.5-13.1h5.3c0,3.7,1.1,6.6,3,8.7
			c2,2,4.7,3.1,8.3,3.1c3.7,0,6.5-0.7,8.3-2.2c1.8-1.5,2.8-3.7,2.8-6.6c0-2.7-0.7-4.6-2.2-5.8c-1.4-1.2-4.3-2.4-8.5-3.4
			c-6-1.4-10.1-3.2-12.3-5.3c-2.3-2.1-3.4-5.1-3.4-9.2c0-4.7,1.4-8.4,4.1-11.2c2.8-2.8,6.5-4.1,11.2-4.1c4.8,0,8.5,1.4,11.1,4.2
			c2.7,2.8,4.1,6.8,4.2,11.9H427.4z"/>
	</g>
	<g>
		<polygon class="st1" points="98.3,77.6 139.3,91.6 112.3,36.6 		"/>
		<polygon class="st2" points="105.3,57.1 98.3,77.6 125.8,64.1 		"/>
		<polygon class="st3" points="118.7,84.5 125.7,64.1 98.3,77.5 		"/>
		<polyline class="st3" points="87.6,48.7 57.4,63.5 98.3,77.6 112.3,36.6 87.6,48.7 		"/>
		<polygon class="st4" points="84.3,118.5 139.3,91.6 98.3,77.6 		"/>
		<polygon class="st3" points="84.3,118.5 139.3,91.6 98.3,77.6 		"/>
		<polygon class="st5" points="57.4,63.5 84.3,118.5 98.3,77.6 		"/>
		<polygon class="st6" points="84.9,50.1 77.8,70.6 105.3,57.1 		"/>
		<polygon class="st7" points="98.3,77.6 105.3,57.1 77.8,70.6 		"/>
		<polygon class="st8" points="77.8,70.6 70.8,91 98.3,77.6 		"/>
		<polygon class="st9" points="91.3,98 98.3,77.6 70.8,91 		"/>
		<polygon class="st7" points="98.3,77.6 91.3,98 118.8,84.6 		"/>
		<polygon class="st10" points="111.8,105 118.8,84.6 91.3,98 		"/>
		<polyline class="st0" points="84.9,50.1 78,35.9 57.4,63.5 57.4,63.5 		"/>
	</g>
</g>
</svg>
